<?xml version="1.0" encoding="utf-8"?>

<svg xmlns="http://www.w3.org/2000/svg">

  <style>
    :root > svg {
      display:none;
    }
    :root > svg:target {
      display:block;
    }
  </style>

  <svg id="logo-mobile" viewBox="0 0 34 38" xmlns="http://www.w3.org/2000/svg">
    <path d="M6.07 20.72V18.46C12.7536 17.5423 19.4937 17.0979 26.24 17.13C26.24 17.73 26.24 18.34 26.18 18.95C28.0976 18.099 30.1128 17.4877 32.18 17.13C30.8625 13.722 28.4618 10.8412 25.3471 8.93087C22.2325 7.02052 18.5764 6.1864 14.9414 6.55683C11.3064 6.92727 7.89379 8.48172 5.22852 10.9811C2.56325 13.4804 0.792971 16.7863 0.190002 20.39L6.07 20.72Z" fill="#FDC305"/>
    <path d="M27.24 24.23C26.08 25.51 25.85 25.43 25.85 27.68C25.85 28.59 25.85 32.58 25.85 36.86C28.1425 35.346 30.0245 33.2879 31.328 30.8694C32.6315 28.4509 33.3158 25.7474 33.32 23C33.3068 21.9591 33.1997 20.9216 33 19.9C30.9282 21.1295 28.9968 22.5814 27.24 24.23Z" fill="#FDC305"/>
    <path d="M6.36 25.72C6.36 25.72 2.57 24.28 1.17 23.89C0.787067 23.7693 0.396097 23.6757 0 23.61C0.108395 26.496 0.965588 29.3041 2.48739 31.7586C4.00919 34.2131 6.14326 36.2296 8.68 37.61L6.36 25.72Z" fill="#FDC305"/>
    <path d="M26.29 17.12C26.3307 11.5986 25.862 6.08528 24.89 0.65C24.89 0.65 24.75 -0.64 24 0.41C23.4109 1.65814 23.0067 2.98539 22.8 4.35C18.5418 4.07577 14.2675 4.18957 10.03 4.69C9.24 2 7.85 0.75 7.18 1C6.51 1.25 6.46 4.31 6.46 4.31L6.13 18.41C12.8113 17.506 19.548 17.0749 26.29 17.12Z" fill="#F06351"/>
    <path d="M12.41 14C12.41 13.91 13.41 14.68 13.82 14.92C14.23 15.16 14.43 15.34 14.43 15.51C14.43 15.68 14.16 15.85 13.8 15.85C13.44 15.85 12.89 15.73 12.8 15.58H13.74H14.03C13.4207 15.1294 12.8757 14.5978 12.41 14Z" fill="black"/>
    <path d="M19.89 14.11L18.8 15.44C18.8 15.5 18.63 15.79 18.98 15.74C19.3942 15.6783 19.8023 15.5812 20.2 15.45C20.31 15.45 20.27 15.26 20.09 15.28C19.91 15.3 19.4 15.33 19.09 15.39L19.93 14.13C19.93 14.13 20 14 19.89 14.11Z" fill="black"/>
    <path d="M16.75 20.2C17.2135 19.9958 17.5967 19.6443 17.84 19.2C18.12 18.55 17.84 18.29 17.4 18.2C16.7979 18.0902 16.1765 18.2116 15.66 18.54C15.27 18.9 15.32 19.26 15.61 19.54C15.9613 19.8062 16.3442 20.0279 16.75 20.2Z" fill="black"/>
    <path d="M16.35 21.45C16.2379 21.6785 16.0816 21.8825 15.89 22.05C15.6052 22.2791 15.2551 22.4122 14.89 22.43C14.3638 22.472 13.8406 22.3189 13.42 22C13.2222 21.8808 13.0436 21.7324 12.89 21.56C12.7895 21.4491 12.6669 21.3605 12.53 21.3C12.53 21.3 13.28 25.4 15.1 26.05C16.92 26.7 17.24 25.3 17.3 24.92C17.3601 23.7851 17.0742 22.6588 16.48 21.69C16.46 21.38 16.45 21.58 16.35 21.45Z" fill="#F06351"/>
    <path d="M14.71 22.59C14.2453 22.5247 13.7989 22.3651 13.3982 22.1209C12.9975 21.8767 12.651 21.5531 12.38 21.17C12.3667 21.157 12.3561 21.1414 12.3489 21.1242C12.3417 21.1071 12.338 21.0886 12.338 21.07C12.338 21.0514 12.3417 21.0329 12.3489 21.0158C12.3561 20.9986 12.3667 20.983 12.38 20.97C12.393 20.9567 12.4086 20.9461 12.4258 20.9389C12.4429 20.9317 12.4614 20.928 12.48 20.928C12.4986 20.928 12.5171 20.9317 12.5342 20.9389C12.5514 20.9461 12.567 20.9567 12.58 20.97C13.0848 21.6642 13.843 22.1313 14.69 22.27C15.0217 22.245 15.3426 22.1413 15.6261 21.9674C15.9096 21.7934 16.1475 21.5544 16.32 21.27L16.46 21.08L16.56 21.29C16.56 21.29 16.93 22.05 17.56 22.09C18.19 22.13 18.61 21.68 19.17 20.81C19.183 20.7967 19.1986 20.7861 19.2158 20.7789C19.2329 20.7717 19.2514 20.768 19.27 20.768C19.2886 20.768 19.3071 20.7717 19.3242 20.7789C19.3414 20.7861 19.357 20.7967 19.37 20.81C19.4023 20.8306 19.4255 20.8629 19.4348 20.9C19.4441 20.9372 19.4388 20.9766 19.42 21.01C18.78 22.01 18.15 22.45 17.54 22.41C17.308 22.3763 17.0867 22.2904 16.8927 22.1587C16.6987 22.0271 16.5371 21.8531 16.42 21.65C16.2233 21.9245 15.9676 22.1514 15.6717 22.3141C15.3758 22.4767 15.0472 22.571 14.71 22.59Z" fill="black"/>
    <path d="M26.24 18.92C24.4445 20.5437 22.7512 22.277 21.17 24.11C19.5986 25.9361 17.8238 27.5768 15.88 29C15.66 28.47 14.26 27.49 14.26 27.49C14.26 27.49 11.13 25.35 9.08 23.67C7.97414 22.7373 6.9287 21.7353 5.95 20.67L3.95 20.56C6.84017 24.7655 11.0702 27.8676 15.95 29.36C16.81 29.22 19.22 27.5 21.02 26.1C23.1389 24.2819 25.124 22.3134 26.96 20.21C27.4625 19.621 27.8493 18.9425 28.1 18.21C27 18.6 26.24 18.92 26.24 18.92Z" fill="#F06351"/>
  </svg>

  <svg id="logo-mobile-text" viewBox="0 0 101 18" xmlns="http://www.w3.org/2000/svg">
    <path d="M1.26449 16.5385C0.36955 15.2762 -0.0747041 13.7627 1.02073e-05 12.2308V5.84615C-0.108365 4.29774 0.308071 2.75746 1.18546 1.46154C2.05478 0.461538 3.39829 0 5.37403 0C7.34978 0 8.61425 0.461538 9.40455 1.30769C10.2626 2.37941 10.6846 3.72136 10.59 5.07692V6.61539H6.71754V4.84615C6.74881 4.32289 6.66808 3.799 6.48045 3.30769C6.38016 3.10938 6.2212 2.9448 6.02403 2.83513C5.82686 2.72547 5.60049 2.67572 5.37403 2.69231C4.82082 2.69231 4.42568 2.84615 4.26762 3.23077C4.08883 3.77733 4.00862 4.34988 4.03053 4.92308V13.1538C3.98879 13.71 4.0978 14.267 4.34665 14.7692C4.5047 15.1538 4.89985 15.3077 5.45306 15.3077C6.00627 15.3077 6.32239 15.1538 6.48045 14.7692C6.66013 14.2494 6.74049 13.7019 6.71754 13.1538V11.3077H10.59V12.8462C10.6704 14.2238 10.2508 15.5852 9.40455 16.6923C8.61425 17.6154 7.27075 18.0769 5.37403 18.0769C3.47732 18 2.05478 17.5385 1.26449 16.5385Z" fill="#111111"/>
    <path d="M15.2527 0.23077H19.7574L23.0767 17.7692H19.4413L18.8091 14.0769H16.2011L15.5689 17.7692H11.8545L15.2527 0.23077ZM18.493 11.7692L17.5446 4.92308L16.5963 11.7692H18.493Z" fill="#111111"/>
    <path d="M25.8427 3.15385H23.1557V0.23077H32.5602V3.07692H29.8732V17.7692H25.8427V3.15385Z" fill="#111111"/>
    <path d="M39.752 0.23077H46.7066V2.07692H42.2019V7.84615H45.8372V9.61539H42.2019V16.0769H46.7066V17.8462H39.6729V0.23077H39.752Z" fill="#111111"/>
    <path d="M48.7613 0.23077H50.5L55.6369 11.8462V0.23077H57.6917V17.7692H56.1111L50.8951 5.76923V17.7692H48.7613V0.23077Z" fill="#111111"/>
    <path d="M60.0626 0.23077H67.0172V2.07692H62.5125V7.84615H66.1479V9.61539H62.5125V16.0769H67.0172V17.8462H60.0626V0.23077Z" fill="#111111"/>
    <path d="M69.072 0.230769H72.7074C74.1375 0.134616 75.5587 0.514352 76.7379 1.30769C77.6072 2 78.0024 3.23077 78.0024 4.84615C78.0024 7.07692 77.2911 8.46154 75.7895 8.92308L78.3185 17.6923H75.8686L73.4977 9.46154H71.5219V17.6923H68.993V0.230769H69.072ZM72.5493 7.76923C73.364 7.83458 74.1761 7.61652 74.8412 7.15384C75.3154 6.76923 75.5524 6 75.5524 4.84615C75.5743 4.27296 75.4941 3.7004 75.3154 3.15385C75.1375 2.76165 74.832 2.4373 74.446 2.23077C73.9017 1.98934 73.3042 1.8836 72.7074 1.92308H71.601V7.69231H72.5493V7.76923Z" fill="#111111"/>
    <path d="M81.1635 16.4615C80.342 15.1166 79.9564 13.5617 80.0571 12V6.15384C80.0376 5.03911 80.1705 3.9268 80.4522 2.84615C80.7167 2.03863 81.2437 1.33668 81.9538 0.846152C82.8362 0.337748 83.8542 0.0967294 84.8779 0.153844C86.5375 0.153844 87.723 0.53846 88.4343 1.38461C89.2524 2.50191 89.6438 3.86237 89.5407 5.23077V5.84615H87.1698V5.30769C87.1734 4.66346 87.1205 4.0201 87.0117 3.38461C86.9451 2.98303 86.7178 2.62348 86.3795 2.38461C85.9353 2.10082 85.4081 1.96579 84.8779 2C84.3113 1.96466 83.7504 2.12843 83.2973 2.46154C83.1114 2.61401 82.9595 2.80181 82.8508 3.01344C82.742 3.22507 82.6789 3.45608 82.6651 3.69231C82.5609 4.37999 82.5081 5.07411 82.507 5.76923V12.3077C82.4488 13.3038 82.6105 14.3006 82.9812 15.2308C83.2973 15.8462 83.9296 16.0769 84.8779 16.0769C85.2524 16.1223 85.6322 16.0589 85.9697 15.8947C86.3072 15.7304 86.5873 15.4727 86.7746 15.1538C87.1922 14.1811 87.3812 13.1299 87.3278 12.0769V10.8462H85.036V9.07692H89.6197V17.7692H88.0391L87.802 15.7692C87.5948 16.4395 87.1634 17.0231 86.5763 17.4273C85.9892 17.8315 85.2801 18.0331 84.5618 18C83.9088 18.0374 83.2565 17.9164 82.6633 17.6479C82.0702 17.3794 81.5549 16.9717 81.1635 16.4615Z" fill="#111111"/>
    <path d="M94.6776 11.6154L90.8052 0.30769H93.1761L95.9421 8.76923L98.6291 0.30769H101L97.1275 11.6154V17.7692H94.7566V11.6154H94.6776Z" fill="#111111"/>
  </svg>

  <svg id="logo-tablet" viewBox="0 0 174 52" xmlns="http://www.w3.org/2000/svg">
    <path d="M51.5819 20.854C50.0969 17.265 47.7053 14.1312 44.6456 11.7649C41.5858 9.39869 37.9646 7.88262 34.143 7.36781C30.3214 6.85301 26.4328 7.35745 22.8646 8.83086C19.2965 10.3043 16.1735 12.6952 13.8068 15.7654C11.4402 18.8355 9.9125 22.4777 9.37609 26.329C8.83968 30.1802 9.31325 34.106 10.7496 37.7151C12.186 41.3242 14.535 44.4906 17.5625 46.8987C20.59 49.3068 24.1903 50.8726 28.0046 51.4399C27.505 49.6238 26.9967 47.6166 26.5488 45.4878C27.8519 46.3405 29.2235 47.0816 30.6492 47.7035C30.6492 47.7035 30.7526 49.5804 30.8904 51.6745C32.4308 51.7013 33.9698 51.5644 35.4818 51.2661C35.4427 51.0477 35.4427 50.8241 35.4818 50.6057C35.7316 48.9808 36.4208 46.0526 36.5586 44.167C37.552 43.2297 38.3948 42.1421 39.0567 40.9434L39.005 41.3257C38.5312 45.0273 37.5406 48.9808 36.9376 50.0757C36.7424 50.4381 36.5021 50.7739 36.2226 51.0749C39.3408 50.3371 42.2626 48.924 44.7855 46.9336C47.3083 44.9433 49.3718 42.4233 50.8329 39.5484C52.2941 36.6735 53.1179 33.5124 53.2472 30.2843C53.3765 27.0563 52.8083 23.8385 51.5819 20.854ZM50.3156 24.1472C49.9366 24.5208 49.1527 24.7728 49.0235 23.6432C48.8942 22.5136 48.8598 21.7229 48.8598 21.7229C48.8598 21.7229 47.1972 18.7425 46.577 18.7078C45.9568 18.673 41.5549 21.7229 40.3919 23.0524C39.3841 24.1733 39.1859 24.0951 39.1859 26.0675C39.1859 27.5534 39.3755 33.1666 39.2721 37.459L32.2514 39.3446C30.0448 39.9834 27.8007 40.4825 25.5323 40.8391L24.6709 35.7733H24.5503L22.3364 24.3297C22.3364 24.3297 19.0543 23.0784 17.8483 22.7396C17.2821 22.4897 16.6568 22.4084 16.0462 22.5054C15.4356 22.6024 14.8653 22.8736 14.4026 23.287C13.9306 23.7039 13.5531 24.2185 13.296 24.7958C13.0388 25.373 12.908 25.9994 12.9124 26.6323C13.0945 27.0362 13.2331 27.4585 13.3258 27.8922C13.3689 28.3093 12.2921 28.2659 11.603 28.2659C10.9138 28.2659 10.8105 27.0146 11.3532 25.5462C11.7766 24.417 12.3013 23.3292 12.921 22.2964C13.387 21.3738 13.9881 20.5273 14.7041 19.7852C14.7041 19.7852 14.8247 19.4898 15.7809 19.5767C16.7371 19.6636 22.0521 19.9503 22.0521 19.9503L22.0952 17.9779C27.8722 17.1733 33.6987 16.7842 39.5305 16.8135C39.5305 17.3436 39.5305 17.8736 39.5305 18.4037C41.7394 17.3869 44.118 16.7974 46.5425 16.6658C46.6723 16.6625 46.8008 16.6917 46.9166 16.7509C47.0323 16.81 47.1317 16.8973 47.2058 17.0047C47.4987 17.3783 49.2819 19.6115 49.4886 19.933C50.0677 20.7677 50.5942 21.6383 51.065 22.5397C50.9037 23.1104 50.6505 23.6505 50.3156 24.1385V24.1472Z" fill="#FDC305"/>
    <path d="M48.6363 18.8294C49.0411 19.3508 49.3943 19.8113 49.4977 19.9503C50.0768 20.7851 50.6033 21.6557 51.0741 22.5571C50.9102 23.1091 50.6601 23.6312 50.3333 24.1038C49.9543 24.4774 49.1704 24.7294 49.0411 23.5998C48.9119 22.4702 48.8602 21.7229 48.8602 21.7229C48.8602 21.7229 47.1977 18.7425 46.5775 18.7078C45.9572 18.673 41.5553 21.7229 40.3924 23.0524C39.3845 24.1733 39.1864 24.0951 39.1864 26.0675C39.1864 27.3709 39.3328 31.8458 39.2984 35.8254C40.8576 35.9992 43.149 36.4337 43.8381 37.459C43.8381 37.459 43.5883 31.2202 50.5659 34.4873C50.5659 34.4873 50.8071 25.9806 60.4378 28.1616C57.1639 24.2844 53.1505 21.1107 48.6363 18.8294Z" fill="#F06351"/>
    <path d="M39.5654 16.8135C39.6005 11.9987 39.1968 7.1907 38.3594 2.45035C38.3594 2.45035 38.2302 1.32075 37.61 2.24181C37.0982 3.34291 36.7499 4.51402 36.5763 5.71747C32.8938 5.47914 29.1975 5.57802 25.5328 6.0129C24.8264 3.62338 23.6204 2.53724 23.0432 2.82398C22.4661 3.11072 22.3972 5.67403 22.3972 5.67403L22.1129 17.9779C27.8956 17.1725 33.7279 16.7834 39.5654 16.8135Z" fill="#F06351"/>
    <path d="M39.0651 40.9434C39.1771 40.0136 39.2374 38.7798 39.2719 37.4156L32.2516 39.3011C30.0459 39.9546 27.8019 40.4682 25.5327 40.8391L26.4889 45.1837C26.4889 45.2793 26.4889 45.3748 26.5492 45.4704C27.8522 46.3231 29.2238 47.0642 30.6494 47.6862C32.7328 46.6815 34.7171 45.4799 36.5757 44.0975V44.1497C37.5647 43.217 38.4044 42.1354 39.0651 40.9434Z" fill="#E55645"/>
    <path d="M27.5657 14.0938C27.5227 14.0069 28.4271 14.6847 28.7803 14.8932C29.1334 15.1018 29.3057 15.2582 29.3057 15.4059C29.3057 15.5536 29.0818 15.7013 28.7717 15.7013C28.4616 15.7013 27.9792 15.5971 27.9103 15.4754C27.8414 15.3538 28.4271 15.4754 28.72 15.4754H28.9698C28.4395 15.084 27.9667 14.6189 27.5657 14.0938Z" fill="black"/>
    <path d="M34.0264 14.1894C34.0264 14.1894 33.165 15.3016 33.0875 15.3538C33.0099 15.4059 32.941 15.6492 33.2511 15.6057C33.6071 15.5521 33.9585 15.4708 34.302 15.3624C34.3968 15.3103 34.3623 15.1887 34.1986 15.206C34.035 15.2234 33.6129 15.2495 33.3373 15.3016L34.0694 14.1981C34.0694 14.1981 34.0953 14.0938 34.0264 14.1894Z" fill="black"/>
    <path d="M31.3215 19.4985C31.7208 19.321 32.0508 19.0156 32.2604 18.6296C32.5016 18.0561 32.2604 17.8389 31.8814 17.7607C31.36 17.6647 30.8218 17.7702 30.374 18.0561C30.038 18.3776 30.0811 18.6904 30.374 18.925C30.6649 19.1552 30.9832 19.3478 31.3215 19.4985Z" fill="black"/>
    <path d="M31.0113 20.5933C30.9124 20.7904 30.778 20.9672 30.615 21.1147C30.3697 21.3138 30.0682 21.4294 29.7537 21.4449C29.2794 21.4918 28.8052 21.3552 28.4271 21.0625C28.2535 20.9601 28.099 20.8278 27.9706 20.6715C27.8844 20.5769 27.7785 20.5027 27.6605 20.4543C27.6605 20.4543 28.3065 24.0255 29.8743 24.599C31.442 25.1725 31.7348 23.9387 31.7779 23.6085C31.8304 22.6196 31.5841 21.6379 31.0716 20.7932C31.0716 20.5325 31.0544 20.7063 31.0113 20.5933Z" fill="#F06351"/>
    <path d="M29.5469 21.5839C29.1438 21.5254 28.7566 21.3852 28.4087 21.1716C28.0608 20.9581 27.7594 20.6756 27.5226 20.3413C27.5015 20.3174 27.4897 20.2865 27.4897 20.2544C27.4897 20.2224 27.5015 20.1915 27.5226 20.1676C27.5339 20.156 27.5473 20.1468 27.5621 20.1405C27.5769 20.1343 27.5927 20.131 27.6088 20.131C27.6248 20.131 27.6407 20.1343 27.6555 20.1405C27.6703 20.1468 27.6837 20.156 27.6949 20.1676C27.9081 20.4692 28.1785 20.7252 28.4905 20.9206C28.8025 21.116 29.1499 21.2469 29.5124 21.3058C29.7993 21.2841 30.0769 21.194 30.3225 21.0429C30.5681 20.8919 30.7746 20.6842 30.9251 20.4369L31.0457 20.2718L31.1319 20.463C31.1319 20.463 31.4592 21.1234 31.9932 21.1581C32.5273 21.1929 32.9063 20.7932 33.3973 20.0372C33.4156 20.0096 33.444 19.9904 33.4763 19.9838C33.5086 19.9773 33.5422 19.984 33.5696 20.0025C33.597 20.0209 33.616 20.0496 33.6225 20.0822C33.629 20.1147 33.6223 20.1486 33.604 20.1762C33.0298 21.0278 32.4871 21.4362 31.976 21.4014C31.7785 21.375 31.5893 21.3043 31.4224 21.1946C31.2554 21.0848 31.115 20.9388 31.0113 20.7671C30.8427 21.0045 30.6238 21.201 30.3705 21.3423C30.1172 21.4836 29.8358 21.5661 29.5469 21.5839Z" fill="black"/>
    <path d="M31.2353 33.2795C33.0192 33.2795 34.4655 31.8207 34.4655 30.0211C34.4655 28.2215 33.0192 26.7626 31.2353 26.7626C29.4513 26.7626 28.0051 28.2215 28.0051 30.0211C28.0051 31.8207 29.4513 33.2795 31.2353 33.2795Z" fill="#FDC305"/>
    <path d="M35.5163 27.3709L32.8202 28.5092L33.8108 23.6172L27.3504 32.0978L30.0465 30.9595L29.0559 35.8602L35.5163 27.3709ZM29.1507 30.6988L32.734 25.998L32.0363 29.4737L33.7591 28.7611L30.1499 33.4707L30.8476 29.995L29.1507 30.6988Z" fill="#111111"/>
    <path d="M27.9447 29.4215C28.4775 29.4215 28.9095 28.9858 28.9095 28.4483C28.9095 27.9109 28.4775 27.4751 27.9447 27.4751C27.4119 27.4751 26.9799 27.9109 26.9799 28.4483C26.9799 28.9858 27.4119 29.4215 27.9447 29.4215Z" fill="#111111"/>
    <path d="M33.5612 32.9493C33.9371 32.9493 34.2417 32.642 34.2417 32.2629C34.2417 31.8838 33.9371 31.5764 33.5612 31.5764C33.1854 31.5764 32.8807 31.8838 32.8807 32.2629C32.8807 32.642 33.1854 32.9493 33.5612 32.9493Z" fill="#111111"/>
    <path d="M34.3882 31.0638C34.5547 31.0638 34.6897 30.9276 34.6897 30.7597C34.6897 30.5917 34.5547 30.4555 34.3882 30.4555C34.2217 30.4555 34.0867 30.5917 34.0867 30.7597C34.0867 30.9276 34.2217 31.0638 34.3882 31.0638Z" fill="#111111"/>
    <path d="M39.5224 18.3863C37.9674 19.8002 36.5029 21.3123 35.1377 22.9133C33.7778 24.5028 32.2433 25.9312 30.5635 27.171C30.374 26.7105 29.1594 25.8503 29.1594 25.8503C29.1594 25.8503 26.4545 23.9821 24.6799 22.5136C23.7207 21.7077 22.8169 20.8368 21.9751 19.9069L20.2522 19.8113C22.7392 23.4757 26.3826 26.183 30.5893 27.4925C31.3302 27.3709 33.4148 25.8677 34.974 24.6425C36.8187 23.0601 38.5461 21.3437 40.1426 19.5072C40.5717 18.9928 40.9044 18.4039 41.1246 17.7693C40.1426 18.0995 39.5224 18.3863 39.5224 18.3863Z" fill="#F06351"/>
    <path d="M22.3368 24.3297C22.3368 24.3297 19.0548 23.0784 17.8488 22.7396C17.2825 22.4897 16.6572 22.4084 16.0466 22.5054C15.4361 22.6024 14.8658 22.8736 14.4031 23.287C13.931 23.7039 13.5536 24.2185 13.2964 24.7958C13.0393 25.373 12.9084 25.9994 12.9128 26.6323C13.0949 27.0362 13.2335 27.4585 13.3263 27.8922C13.3694 28.3093 12.2926 28.2659 11.6034 28.2659C10.9143 28.2659 10.8109 27.0146 11.3536 25.5462C11.777 24.417 12.3018 23.3292 12.9214 22.2964C8.22664 24.7641 0 30.4642 0 30.4642C2.35316 30.3211 4.71429 30.3909 7.0551 30.6728C11.5776 31.1333 11.3622 34.7306 11.3622 34.7306C12.9529 34.2883 14.574 33.9659 16.2121 33.7661C18.0383 33.6445 18.1675 35.6082 18.1675 35.6082L18.6241 38.9622C19.3173 38.2057 20.0819 37.5189 20.9069 36.9116C21.9703 36.0529 23.3243 35.6476 24.6799 35.782L22.3368 24.3297Z" fill="#F06351"/>
    <path d="M73.7899 36.4945C72.9025 35.1681 72.4782 33.5814 72.584 31.9848V25.468C72.472 23.8596 72.8899 22.2589 73.7727 20.9148C74.5709 19.8779 75.9348 19.3624 77.8643 19.3682C79.7938 19.374 81.1002 19.8287 81.7836 20.7324C82.6168 21.8522 83.0234 23.2368 82.9292 24.6338V26.1631H79.3631V24.5035C79.3583 24.0668 79.3208 23.6311 79.2511 23.2001C79.208 22.8881 79.066 22.5985 78.8462 22.3746C78.7106 22.2573 78.5531 22.1684 78.3831 22.1132C78.213 22.058 78.0337 22.0376 77.8557 22.0531C77.6 22.0146 77.3388 22.0565 77.1076 22.1731C76.8764 22.2898 76.6864 22.4754 76.5636 22.7048C76.3371 23.315 76.2374 23.9657 76.2707 24.6164V32.8885C76.2314 33.5435 76.3465 34.1986 76.6066 34.8001C76.7309 35.0171 76.9153 35.1927 77.1372 35.3054C77.3591 35.4181 77.6088 35.463 77.8557 35.4344C78.0982 35.469 78.3454 35.4255 78.5619 35.31C78.7785 35.1946 78.9533 35.0131 79.0616 34.7914C79.27 34.1801 79.3606 33.5342 79.3286 32.8885V31.1507H82.8948V32.6539C82.9997 34.0715 82.6263 35.4832 81.8353 36.6596C81.0772 37.6154 79.7679 38.0846 77.9073 38.0846C76.0467 38.0846 74.591 37.5633 73.7899 36.4945Z" fill="#111111"/>
    <path d="M87.788 19.6201H91.871L95.3166 37.8674H91.9227L91.3111 33.8356H88.4513L87.7622 37.8413H84.3167L87.788 19.6201ZM90.9321 31.5417L89.8468 24.208L88.77 31.5417H90.9321Z" fill="#111111"/>
    <path d="M97.9615 22.3659H95.1707V19.6201H104.405V22.3659H101.648V37.8413H97.9529L97.9615 22.3659Z" fill="#111111"/>
    <path d="M111.65 19.6201H118.653V21.5144H114.174V27.536H117.809V29.3346H114.174V36.0166H118.696V37.8413H111.65V19.6201Z" fill="#444444"/>
    <path d="M120.729 19.6201H122.452L127.62 31.7241V19.6201H129.722V37.8674H128.111L122.943 25.4245V37.8413H120.807L120.729 19.6201Z" fill="#444444"/>
    <path d="M132.505 19.6201H139.499V21.5144H135.02V27.536H138.69V29.3346H135.055V36.0166H139.551V37.8413H132.505V19.6201Z" fill="#444444"/>
    <path d="M141.576 19.6201H145.211C146.643 19.5039 148.07 19.9075 149.234 20.7584C150.095 21.5144 150.517 22.7482 150.517 24.46C150.517 26.7771 149.773 28.1935 148.286 28.709L150.87 37.8413H148.424L146.055 29.2912H144.1V37.8413H141.576V19.6201ZM145.021 27.4404C145.851 27.5214 146.681 27.2858 147.347 26.78C147.618 26.4569 147.82 26.0812 147.942 25.6763C148.063 25.2713 148.101 24.8456 148.053 24.4253C148.071 23.8357 147.986 23.2477 147.804 22.6874C147.73 22.4808 147.615 22.2913 147.467 22.1301C147.319 21.969 147.141 21.8393 146.942 21.749C146.383 21.5176 145.78 21.4137 145.176 21.4449H144.065V27.4751L145.021 27.4404Z" fill="#444444"/>
    <path d="M153.911 36.4945C153.088 35.0926 152.707 33.4714 152.817 31.8458V25.7634C152.788 24.5896 152.933 23.418 153.248 22.2877C153.497 21.438 154.026 20.6992 154.747 20.1936C155.618 19.6642 156.626 19.41 157.641 19.4637C158.298 19.4007 158.961 19.4832 159.582 19.7053C160.204 19.9274 160.771 20.2839 161.242 20.7497C162.068 21.9176 162.459 23.3426 162.344 24.7728V25.4506H159.976V24.8858C159.992 24.2103 159.94 23.5348 159.821 22.8699C159.742 22.4437 159.509 22.0626 159.166 21.8011C158.719 21.5349 158.202 21.4108 157.684 21.4449C157.122 21.3963 156.562 21.5709 156.125 21.9315C155.768 22.2734 155.534 22.7261 155.462 23.2175C155.353 23.9332 155.304 24.657 155.315 25.3811V32.1499C155.247 33.1785 155.421 34.2088 155.824 35.1564C156.057 35.4478 156.354 35.6814 156.691 35.8395C157.028 35.9975 157.396 36.0757 157.768 36.0682C158.139 36.0606 158.504 35.9675 158.835 35.7959C159.165 35.6243 159.452 35.3788 159.674 35.0782C160.089 34.076 160.269 32.9905 160.2 31.9066V30.6206H157.908V28.822H162.474V37.8413H160.914L160.665 35.7472C160.467 36.4429 160.042 37.0508 159.459 37.472C158.876 37.8933 158.168 38.103 157.452 38.0672C156.778 38.1272 156.1 38.0144 155.481 37.7395C154.862 37.4645 154.322 37.0363 153.911 36.4945Z" fill="#444444"/>
    <path d="M167.711 31.4113L163.809 19.6201H166.152L168.917 28.4136L171.639 19.6201H174.008L170.132 31.4113V37.8413H167.72L167.711 31.4113Z" fill="#444444"/>
  </svg>

  <svg id="logo-desktop" viewBox="0 0 202 60" xmlns="http://www.w3.org/2000/svg">
    <path d="M59.88 24C58.1561 19.8695 55.3798 16.263 51.8279 13.5398C48.2759 10.8166 44.0723 9.07178 39.6359 8.47931C35.1995 7.88684 30.6853 8.46738 26.5432 10.1631C22.4011 11.8588 18.7757 14.6104 16.0283 18.1437C13.281 21.677 11.5076 25.8687 10.8849 30.3009C10.2622 34.7332 10.8119 39.2512 12.4793 43.4048C14.1468 47.5583 16.8736 51.2024 20.3881 53.9738C23.9026 56.7452 28.0821 58.5471 32.51 59.2C31.93 57.11 31.34 54.8 30.82 52.35C32.3328 53.3313 33.925 54.1843 35.58 54.9C35.58 54.9 35.7 57.06 35.86 59.47C37.6482 59.5008 39.4347 59.3433 41.19 59C41.1447 58.7487 41.1447 58.4913 41.19 58.24C41.48 56.37 42.28 53 42.44 50.83C43.5933 49.7513 44.5716 48.4996 45.34 47.12L45.28 47.56C44.73 51.82 43.58 56.37 42.88 57.63C42.6534 58.0471 42.3745 58.4335 42.05 58.78C45.6698 57.9308 49.0616 56.3046 51.9903 54.014C54.9189 51.7233 57.3144 48.8232 59.0106 45.5146C60.7067 42.2059 61.663 38.568 61.8132 34.853C61.9633 31.1379 61.3037 27.4347 59.88 24ZM58.41 27.79C57.97 28.22 57.06 28.51 56.91 27.21C56.76 25.91 56.72 25 56.72 25C56.72 25 54.79 21.57 54.07 21.53C53.35 21.49 48.24 25 46.89 26.53C45.72 27.82 45.49 27.73 45.49 30C45.49 31.71 45.71 38.17 45.59 43.11L37.44 45.28C34.8783 46.0152 32.2733 46.5896 29.64 47L28.64 41.17H28.5L25.93 28C25.93 28 22.12 26.56 20.72 26.17C20.0626 25.8824 19.3367 25.7889 18.6279 25.9005C17.9192 26.0122 17.2571 26.3243 16.72 26.8C16.172 27.2798 15.7338 27.872 15.4353 28.5364C15.1368 29.2008 14.9849 29.9217 14.99 30.65C15.2014 31.1148 15.3623 31.6009 15.47 32.1C15.52 32.58 14.27 32.53 13.47 32.53C12.67 32.53 12.55 31.09 13.18 29.4C13.6715 28.1005 14.2807 26.8486 15 25.66C15.541 24.5982 16.2388 23.624 17.07 22.77C17.07 22.77 17.21 22.43 18.32 22.53C19.43 22.63 25.6 22.96 25.6 22.96L25.65 20.69C32.3564 19.764 39.1201 19.3162 45.89 19.35C45.89 19.96 45.89 20.57 45.89 21.18C48.4543 20.0098 51.2154 19.3314 54.03 19.18C54.1806 19.1762 54.3298 19.2098 54.4642 19.2779C54.5986 19.346 54.714 19.4463 54.8 19.57C55.14 20 57.21 22.57 57.45 22.94C58.1222 23.9007 58.7334 24.9027 59.28 25.94C59.0927 26.5968 58.7987 27.2184 58.41 27.78V27.79Z" fill="#FDC305"/>
    <path d="M56.46 21.67C56.93 22.27 57.34 22.8 57.46 22.96C58.1322 23.9207 58.7434 24.9227 59.29 25.96C59.0997 26.5953 58.8094 27.1961 58.43 27.74C57.99 28.17 57.08 28.46 56.93 27.16C56.78 25.86 56.72 25 56.72 25C56.72 25 54.79 21.57 54.07 21.53C53.35 21.49 48.24 25 46.89 26.53C45.72 27.82 45.49 27.73 45.49 30C45.49 31.5 45.66 36.65 45.62 41.23C47.43 41.43 50.09 41.93 50.89 43.11C50.89 43.11 50.6 35.93 58.7 39.69C58.7 39.69 58.98 29.9 70.16 32.41C66.3594 27.9478 61.7004 24.2955 56.46 21.67Z" fill="#F06351"/>
    <path d="M45.93 19.35C45.9707 13.8087 45.502 8.27548 44.53 2.82C44.53 2.82 44.38 1.52 43.66 2.58C43.0659 3.84722 42.6615 5.195 42.46 6.58C38.1852 6.30571 33.8943 6.41951 29.64 6.92C28.82 4.17 27.42 2.92 26.75 3.25C26.08 3.58 26 6.53 26 6.53L25.67 20.69C32.383 19.7631 39.1534 19.3153 45.93 19.35Z" fill="#F06351"/>
    <path d="M45.35 47.12C45.48 46.05 45.55 44.63 45.59 43.06L37.44 45.23C34.8794 45.982 32.2744 46.5732 29.64 47L30.75 52C30.75 52.11 30.75 52.22 30.82 52.33C32.3328 53.3113 33.925 54.1643 35.58 54.88C37.9987 53.7238 40.3023 52.341 42.46 50.75V50.81C43.6081 49.7366 44.583 48.4918 45.35 47.12Z" fill="#E55645"/>
    <path d="M32 16.22C31.95 16.12 33 16.9 33.41 17.14C33.82 17.38 34.02 17.56 34.02 17.73C34.02 17.9 33.76 18.07 33.4 18.07C33.04 18.07 32.48 17.95 32.4 17.81C32.32 17.67 33 17.81 33.34 17.81H33.63C33.0143 17.3596 32.4656 16.8243 32 16.22Z" fill="black"/>
    <path d="M39.5 16.33C39.5 16.33 38.5 17.61 38.41 17.67C38.32 17.73 38.24 18.01 38.6 17.96C39.0133 17.8983 39.4212 17.8047 39.82 17.68C39.93 17.62 39.89 17.48 39.7 17.5C39.51 17.52 39.02 17.55 38.7 17.61L39.55 16.34C39.55 16.34 39.58 16.22 39.5 16.33Z" fill="black"/>
    <path d="M36.36 22.44C36.8235 22.2358 37.2067 21.8843 37.45 21.44C37.73 20.78 37.45 20.53 37.01 20.44C36.4047 20.3296 35.7799 20.4509 35.26 20.78C34.87 21.15 34.92 21.51 35.26 21.78C35.5978 22.0449 35.9673 22.2666 36.36 22.44Z" fill="black"/>
    <path d="M36 23.7C35.8852 23.9268 35.7292 24.1302 35.54 24.3C35.2552 24.5291 34.9051 24.6622 34.54 24.68C33.9894 24.734 33.4389 24.5768 33 24.24C32.7984 24.1221 32.619 23.9698 32.47 23.79C32.37 23.6811 32.247 23.5957 32.11 23.54C32.11 23.54 32.86 27.65 34.68 28.31C36.5 28.97 36.84 27.55 36.89 27.17C36.9509 26.0319 36.665 24.9021 36.07 23.93C36.07 23.63 36.05 23.83 36 23.7Z" fill="#F06351"/>
    <path d="M34.3 24.84C33.832 24.7727 33.3825 24.6113 32.9786 24.3656C32.5747 24.1198 32.2248 23.7947 31.95 23.41C31.9254 23.3825 31.9118 23.3469 31.9118 23.31C31.9118 23.2731 31.9254 23.2375 31.95 23.21C31.963 23.1967 31.9786 23.1861 31.9958 23.1789C32.0129 23.1717 32.0314 23.168 32.05 23.168C32.0686 23.168 32.0871 23.1717 32.1042 23.1789C32.1214 23.1861 32.137 23.1967 32.15 23.21C32.3975 23.5572 32.7114 23.8517 33.0736 24.0766C33.4358 24.3015 33.8391 24.4522 34.26 24.52C34.593 24.495 34.9153 24.3913 35.2004 24.2174C35.4855 24.0436 35.7253 23.8046 35.9 23.52L36.04 23.33L36.14 23.55C36.14 23.55 36.52 24.31 37.14 24.35C37.76 24.39 38.2 23.93 38.77 23.06C38.7912 23.0282 38.8242 23.0061 38.8617 22.9986C38.8992 22.9911 38.9382 22.9988 38.97 23.02C39.0018 23.0412 39.0239 23.0742 39.0314 23.1117C39.0389 23.1492 39.0312 23.1882 39.01 23.22C38.3433 24.2 37.7133 24.67 37.12 24.63C36.8907 24.5996 36.6711 24.5183 36.4772 24.392C36.2834 24.2656 36.1204 24.0975 36 23.9C35.8043 24.1732 35.5502 24.3994 35.2561 24.562C34.9621 24.7246 34.6354 24.8196 34.3 24.84Z" fill="black"/>
    <path d="M36.26 38.3C38.3311 38.3 40.01 36.6211 40.01 34.55C40.01 32.4789 38.3311 30.8 36.26 30.8C34.1889 30.8 32.51 32.4789 32.51 34.55C32.51 36.6211 34.1889 38.3 36.26 38.3Z" fill="#FDC305"/>
    <path d="M41.23 31.5L38.1 32.81L39.25 27.18L31.75 36.94L34.88 35.63L33.73 41.27L41.23 31.5ZM33.84 35.33L38 29.92L37.19 33.92L39.19 33.1L35 38.52L35.81 34.52L33.84 35.33Z" fill="#111111"/>
    <path d="M32.44 33.86C33.0586 33.86 33.56 33.3586 33.56 32.74C33.56 32.1214 33.0586 31.62 32.44 31.62C31.8214 31.62 31.32 32.1214 31.32 32.74C31.32 33.3586 31.8214 33.86 32.44 33.86Z" fill="#111111"/>
    <path d="M38.96 37.92C39.3963 37.92 39.75 37.5663 39.75 37.13C39.75 36.6937 39.3963 36.34 38.96 36.34C38.5237 36.34 38.17 36.6937 38.17 37.13C38.17 37.5663 38.5237 37.92 38.96 37.92Z" fill="#111111"/>
    <path d="M39.92 35.75C40.1133 35.75 40.27 35.5933 40.27 35.4C40.27 35.2067 40.1133 35.05 39.92 35.05C39.7267 35.05 39.57 35.2067 39.57 35.4C39.57 35.5933 39.7267 35.75 39.92 35.75Z" fill="#111111"/>
    <path d="M45.88 21.16C44.0749 22.7873 42.3748 24.5274 40.79 26.37C39.2114 28.1993 37.43 29.8432 35.48 31.27C35.26 30.74 33.85 29.75 33.85 29.75C33.85 29.75 30.71 27.6 28.65 25.91C27.5364 24.9825 26.4873 23.9802 25.51 22.91L23.51 22.8C26.397 27.0172 30.6265 30.1329 35.51 31.64C36.37 31.5 38.79 29.77 40.6 28.36C42.7414 26.5389 44.7467 24.5636 46.6 22.45C47.0981 21.858 47.4844 21.1803 47.74 20.45C46.6 20.83 45.88 21.16 45.88 21.16Z" fill="#F06351"/>
    <path d="M65.22 3.5L56.76 12.94L55.54 10.95L63.69 0L65.22 3.5Z" fill="#FDC305"/>
    <path d="M62.65 17.26L68.19 13.15L67.41 9.41L62.01 14.22L62.65 17.26Z" fill="#FDC305"/>
    <path d="M59.92 49.37L66.05 52.55L69.06 50.21L62.37 47.46L59.92 49.37Z" fill="#FDC305"/>
    <path d="M1.95 5.97L5.02 2.61L14.31 11.61L13.09 13.89L1.95 5.97Z" fill="#FDC305"/>
    <path d="M7.38 16.28L2.68 13.15L0.279999 17.02L5.43 19.42L7.38 16.28Z" fill="#FDC305"/>
    <path d="M13.91 52.55L9.36 55.9L12.16 59.48L16.18 55.46L13.91 52.55Z" fill="#FDC305"/>
    <path d="M25.93 28C25.93 28 22.12 26.56 20.72 26.17C20.0626 25.8824 19.3367 25.7889 18.6279 25.9005C17.9192 26.0122 17.2571 26.3243 16.72 26.8C16.172 27.2798 15.7338 27.8721 15.4353 28.5364C15.1368 29.2008 14.9849 29.9217 14.99 30.65C15.2014 31.1148 15.3623 31.6009 15.47 32.1C15.52 32.58 14.27 32.53 13.47 32.53C12.67 32.53 12.55 31.09 13.18 29.4C13.6715 28.1005 14.2807 26.8486 15 25.66C9.55 28.5 0 35.06 0 35.06C2.73169 34.8953 5.47264 34.9756 8.19 35.3C13.44 35.83 13.19 39.97 13.19 39.97C15.0366 39.4609 16.9184 39.0899 18.82 38.86C20.94 38.72 21.09 40.98 21.09 40.98L21.62 44.84C22.4248 43.9693 23.3123 43.1789 24.27 42.48C25.5045 41.4918 27.0763 41.0253 28.65 41.18L25.93 28Z" fill="#F06351"/>
    <path d="M85.66 42C84.6298 40.4735 84.1372 38.6475 84.26 36.81V29.31C84.13 27.459 84.6152 25.6169 85.64 24.07C86.5667 22.8767 88.15 22.2833 90.39 22.29C92.63 22.2967 94.1467 22.82 94.94 23.86C95.9073 25.1488 96.3793 26.7423 96.27 28.35V30.11H92.13V28.2C92.1244 27.6974 92.081 27.196 92 26.7C91.9499 26.3409 91.7851 26.0077 91.53 25.75C91.3725 25.615 91.1897 25.5127 90.9923 25.4492C90.7948 25.3856 90.5867 25.3621 90.38 25.38C90.0832 25.3357 89.78 25.3839 89.5116 25.5181C89.2432 25.6523 89.0226 25.866 88.88 26.13C88.6171 26.8323 88.5013 27.5811 88.54 28.33V37.85C88.4944 38.6038 88.628 39.3578 88.93 40.05C89.0743 40.2997 89.2884 40.5019 89.546 40.6315C89.8036 40.7612 90.0935 40.8128 90.38 40.78C90.6616 40.8198 90.9485 40.7697 91.1999 40.6368C91.4513 40.5039 91.6543 40.2951 91.78 40.04C92.0219 39.3364 92.1271 38.5931 92.09 37.85V35.85H96.23V37.58C96.3519 39.2114 95.9184 40.8361 95 42.19C94.12 43.29 92.6 43.83 90.44 43.83C88.28 43.83 86.59 43.23 85.66 42Z" fill="#111111"/>
    <path d="M101.91 22.58H106.65L110.65 43.58H106.71L106 38.94H102.68L101.88 43.55H97.88L101.91 22.58ZM105.56 36.3L104.3 27.86L103.05 36.3H105.56Z" fill="#111111"/>
    <path d="M113.72 25.74H110.48V22.58H121.2V25.74H118V43.55H113.71L113.72 25.74Z" fill="#111111"/>
    <path d="M129.61 22.58H137.74V24.76H132.54V31.69H136.76V33.76H132.54V41.45H137.79V43.55H129.61V22.58Z" fill="#444444"/>
    <path d="M140.15 22.58H142.15L148.15 36.51V22.58H150.59V43.58H148.72L142.72 29.26V43.55H140.24L140.15 22.58Z" fill="#444444"/>
    <path d="M153.82 22.58H161.94V24.76H156.74V31.69H161V33.76H156.78V41.45H162V43.55H153.82V22.58Z" fill="#444444"/>
    <path d="M164.35 22.58H168.57C170.233 22.4462 171.889 22.9107 173.24 23.89C174.24 24.76 174.73 26.18 174.73 28.15C174.73 30.8167 173.867 32.4467 172.14 33.04L175.14 43.55H172.3L169.55 33.71H167.28V43.55H164.35V22.58ZM168.35 31.58C169.313 31.6732 170.277 31.402 171.05 30.82C171.364 30.4481 171.599 30.0158 171.74 29.5498C171.881 29.0837 171.925 28.5938 171.87 28.11C171.89 27.4316 171.792 26.7548 171.58 26.11C171.494 25.8722 171.361 25.6542 171.189 25.4687C171.018 25.2831 170.81 25.134 170.58 25.03C169.931 24.7637 169.231 24.6441 168.53 24.68H167.24V31.62L168.35 31.58Z" fill="#444444"/>
    <path d="M178.67 42C177.714 40.3866 177.271 38.5208 177.4 36.65V29.65C177.366 28.2992 177.534 26.9508 177.9 25.65C178.189 24.6721 178.803 23.8219 179.64 23.24C180.651 22.6307 181.821 22.3382 183 22.4C183.762 22.3275 184.532 22.4224 185.254 22.678C185.976 22.9336 186.633 23.3439 187.18 23.88C188.139 25.224 188.593 26.864 188.46 28.51V29.29H185.71V28.64C185.729 27.8626 185.668 27.0852 185.53 26.32C185.439 25.8296 185.168 25.3909 184.77 25.09C184.251 24.7836 183.652 24.6408 183.05 24.68C182.397 24.6241 181.748 24.825 181.24 25.24C180.825 25.6335 180.554 26.1545 180.47 26.72C180.343 27.5437 180.286 28.3767 180.3 29.21V37C180.221 38.1837 180.423 39.3695 180.89 40.46C181.161 40.7954 181.506 41.0643 181.897 41.2461C182.288 41.428 182.716 41.5181 183.147 41.5094C183.578 41.5007 184.002 41.3935 184.386 41.196C184.769 40.9986 185.102 40.716 185.36 40.37C185.842 39.2166 186.051 37.9674 185.97 36.72V35.24H183.31V33.17H188.61V43.55H186.8L186.51 41.14C186.281 41.9407 185.788 42.6403 185.11 43.125C184.433 43.6098 183.612 43.8512 182.78 43.81C181.998 43.879 181.211 43.7492 180.493 43.4328C179.774 43.1163 179.147 42.6235 178.67 42Z" fill="#444444"/>
    <path d="M194.69 36.15L190.16 22.58H192.88L196.09 32.7L199.25 22.58H202L197.5 36.15V43.55H194.7L194.69 36.15Z" fill="#444444"/>
  </svg>

  <svg id="footer-logo" viewBox="0 0 128 24" xmlns="http://www.w3.org/2000/svg">
    <path d="M1.60253 22.0513C0.468358 20.3682 -0.0946573 18.3503 3.016e-05 16.3077V7.79487C-0.137317 5.73031 0.390444 3.67661 1.50238 1.94872C2.6041 0.615385 4.30676 0 6.81067 0C9.31458 0 10.9171 0.615385 11.9187 1.74359C13.006 3.17255 13.5409 4.96181 13.421 6.76923V8.82051H8.51333V6.46154C8.55297 5.76385 8.45065 5.06533 8.21286 4.41026C8.08576 4.14583 7.88431 3.9264 7.63443 3.78018C7.38455 3.63395 7.09766 3.56763 6.81067 3.58974C6.10958 3.58974 5.60879 3.79487 5.40848 4.30769C5.18191 5.03643 5.08025 5.79984 5.10801 6.5641V17.5385C5.05512 18.2799 5.19327 19.0227 5.50864 19.6923C5.70895 20.2051 6.20973 20.4103 6.91083 20.4103C7.61192 20.4103 8.01255 20.2051 8.21286 19.6923C8.44058 18.9992 8.54242 18.2692 8.51333 17.5385V15.0769H13.421V17.1282C13.5229 18.9651 12.9911 20.7803 11.9187 22.2564C10.9171 23.4872 9.21443 24.1026 6.81067 24.1026C4.40692 24 2.6041 23.3846 1.60253 22.0513Z" fill="#111111"/>
    <path d="M19.3302 0.307617H25.0391L29.2457 23.6922H24.6385L23.8372 18.7692H20.5321L19.7308 23.6922H15.0235L19.3302 0.307617ZM23.4366 15.6922L22.2347 6.56403L21.0329 15.6922H23.4366Z" fill="#111111"/>
    <path d="M32.7512 4.20505H29.3459V0.307617H41.2645V4.10249H37.8592V23.6922H32.7512V4.20505Z" fill="#111111"/>
    <path d="M50.3787 0.307617H59.1925V2.76916H53.4836V10.4615H58.0908V12.8204H53.4836V21.4358H59.1925V23.7948H50.2786V0.307617H50.3787Z" fill="#111111"/>
    <path d="M61.7966 0.307617H64L70.5102 15.7948V0.307617H73.1142V23.6922H71.1111L64.5008 7.69223V23.6922H61.7966V0.307617Z" fill="#111111"/>
    <path d="M76.1189 0.307617H84.9327V2.76916H79.2238V10.4615H83.831V12.8204H79.2238V21.4358H84.9327V23.7948H76.1189V0.307617Z" fill="#111111"/>
    <path d="M87.5368 0.3076H92.144C93.9564 0.179397 95.7575 0.685711 97.2519 1.7435C98.3537 2.66657 98.8544 4.3076 98.8544 6.46145C98.8544 9.4358 97.953 11.282 96.0501 11.8973L99.2551 23.5897H96.1502L93.1455 12.6153H90.6416V23.5897H87.4366V0.3076H87.5368ZM91.9437 10.3589C92.9762 10.446 94.0053 10.1553 94.8482 9.53837C95.4491 9.02555 95.7496 7.99991 95.7496 6.46145C95.7774 5.69719 95.6757 4.93378 95.4491 4.20504C95.2237 3.68211 94.8366 3.24964 94.3474 2.97427C93.6576 2.65236 92.9003 2.51137 92.144 2.56401H90.7418V10.2563H91.9437V10.3589Z" fill="#111111"/>
    <path d="M102.861 21.9487C101.82 20.1554 101.331 18.0821 101.459 15.9999V8.20507C101.434 6.71875 101.602 5.23567 101.959 3.79481C102.294 2.71811 102.962 1.78218 103.862 1.12815C104.981 0.450275 106.271 0.128917 107.568 0.20507C109.671 0.20507 111.174 0.71789 112.075 1.8461C113.112 3.33582 113.608 5.14977 113.477 6.9743V7.79481H110.473V7.07687C110.477 6.21789 110.41 5.36008 110.272 4.51276C110.188 3.97732 109.9 3.49792 109.471 3.17943C108.908 2.80104 108.24 2.62099 107.568 2.66661C106.85 2.61949 106.139 2.83785 105.565 3.28199C105.329 3.48529 105.137 3.73569 104.999 4.01787C104.861 4.30004 104.781 4.60805 104.764 4.92302C104.632 5.83993 104.565 6.76543 104.563 7.69225V16.4102C104.49 17.7384 104.694 19.0674 105.164 20.3076C105.565 21.1281 106.366 21.4358 107.568 21.4358C108.043 21.4964 108.524 21.4119 108.952 21.1929C109.38 20.9739 109.734 20.6302 109.972 20.2051C110.501 18.9081 110.741 17.5064 110.673 16.1025V14.4615H107.768V12.1025H113.577V23.6923H111.574L111.274 21.0256C111.011 21.9193 110.465 22.6975 109.72 23.2364C108.976 23.7753 108.078 24.0441 107.167 23.9999C106.34 24.0498 105.513 23.8885 104.761 23.5304C104.01 23.1724 103.357 22.6289 102.861 21.9487Z" fill="#111111"/>
    <path d="M119.987 15.4871L115.08 0.410156H118.084L121.59 11.6922L124.995 0.410156H128L123.092 15.4871V23.6922H120.088V15.4871H119.987Z" fill="#111111"/>
  </svg>

</svg>
