<svg viewBox="0 0 22 22"><path d="M10.98 2.07c1.5 0 2.73.02 3.68.05.8.04 1.53.18 2.16.42a4.49 4.49 0 0 1 2.6 2.6c.25.64.39 1.36.42 2.17.04.95.05 2.17.05 3.67s-.01 2.73-.05 3.68c-.03.8-.17 1.53-.42 2.16a4.49 4.49 0 0 1-2.6 2.6c-.63.25-1.36.39-2.16.42-.95.04-2.18.05-3.68.05s-2.72-.01-3.67-.05a6.75 6.75 0 0 1-2.16-.42 4.49 4.49 0 0 1-2.6-2.6 6.75 6.75 0 0 1-.43-2.16c-.03-.95-.05-2.18-.05-3.68s.02-2.72.05-3.67c.04-.81.18-1.53.42-2.16a4.49 4.49 0 0 1 2.6-2.6 6.75 6.75 0 0 1 2.17-.43c.95-.03 2.17-.05 3.67-.05Zm0 1.16c-1.56 0-2.83.02-3.81.05-.63.03-1.22.14-1.76.34a3.2 3.2 0 0 0-1.8 1.79c-.2.54-.3 1.13-.33 1.76-.03.98-.05 2.25-.05 3.81s.02 2.83.05 3.82c.03.63.14 1.22.34 1.75.35.85.95 1.45 1.79 1.8.54.2 1.13.3 1.76.33.98.04 2.25.05 3.81.05s2.83-.01 3.82-.05a5.64 5.64 0 0 0 1.75-.33 3.21 3.21 0 0 0 1.8-1.8c.2-.53.3-1.12.33-1.75.04-.99.05-2.26.05-3.82s-.01-2.83-.05-3.81a5.64 5.64 0 0 0-.33-1.76 3.21 3.21 0 0 0-1.8-1.8 5.64 5.64 0 0 0-1.75-.33c-.99-.03-2.26-.05-3.82-.05Zm0 11.32c.99 0 1.83-.35 2.52-1.05.7-.7 1.05-1.53 1.05-2.52 0-.98-.35-1.82-1.05-2.52a3.44 3.44 0 0 0-2.52-1.05c-.98 0-1.82.35-2.52 1.05-.7.7-1.05 1.54-1.05 2.52 0 .99.35 1.83 1.05 2.52.7.7 1.54 1.05 2.52 1.05Zm0-8.14a4.4 4.4 0 0 1 3.24 1.34 4.4 4.4 0 0 1 1.33 3.23 4.4 4.4 0 0 1-1.33 3.24 4.4 4.4 0 0 1-3.24 1.33 4.4 4.4 0 0 1-3.23-1.33 4.4 4.4 0 0 1-1.34-3.24 4.4 4.4 0 0 1 1.34-3.23 4.4 4.4 0 0 1 3.23-1.34Zm5.84-.17a1.07 1.07 0 0 1-1.09 1.05c-.3 0-.54-.1-.75-.3-.2-.21-.3-.46-.3-.75a1.07 1.07 0 0 1 1.05-1.1c.3 0 .55.11.76.33.22.22.33.47.33.77Z" /></svg>
